<svg id="app-logo" xmlns="http://www.w3.org/2000/svg" width="700" height="700" viewBox="0 0 700 700">
  <defs>
    <style>
      .cls-1 {
        fill: #fff;
      }

      .cls-2 {
        fill: #07212e;
        fill-rule: evenodd;
      }
    </style>
  </defs>
  <rect class="cls-1" width="700" height="700"/>
  <path id="Milo" class="cls-2" d="M1180.35,651.65c-46.8,0-79.8-33-79.8-78s33-78,79.8-78,79.8,33,79.8,78S1227.15,651.65,1180.35,651.65Zm0-114c-20.4,0-34.2,14.7-34.2,36s13.8,36,34.2,36,34.2-14.7,34.2-36S1200.75,537.649,1180.35,537.649Zm-153-102.9h45v213h-45v-213Zm-61.5,51.3c-16.5,0-28.8-12.3-28.8-28.8s12.3-28.8,28.8-28.8,28.8,12.3,28.8,28.8S982.351,486.048,965.851,486.048Zm-106.2,37.5c0-22.8-11.1-30.9-25.8-30.9-14.4,0-25.8,8.1-25.8,30.9v124.2h-48.6v-124.2c0-22.8-11.4-30.9-25.8-30.9-14.7,0-25.8,8.1-25.8,30.9v124.2h-48.6v-124.2c0-52.5,30.6-75.9,70.2-75.9,23.7,0,42.6,9.3,54.3,27,11.7-17.7,30.6-27,54.3-27,39.6,0,70.2,23.4,70.2,75.9v124.2h-48.6v-124.2Zm128.7,124.2h-45v-148.2h45v148.2Z" transform="translate(-610 -190)"/>
</svg>
