<svg xmlns="http://www.w3.org/2000/svg" width="314.75" height="37.218" viewBox="0 0 314.75 37.218">
  <defs>
    <style>
      .cls-1 {
        fill-rule: evenodd;
      }
    </style>
  </defs>
  <path id="Emilio_Abalos" data-name="Emilio Abalos" class="cls-1" d="M572.351,223.6c-1.85,0-2.6.95-2.6,1.95,0,1.5,1.8,1.7,4.1,2.05,3.55,0.5,9,1.45,9,7.3,0,5.1-4.2,8.5-10.55,8.5s-10.451-3.4-10.551-8.15h7.4c0.05,1.3,1,1.95,3.05,1.95,2.3,0,3.05-.8,3.05-1.85,0-1.651-1.8-1.8-4.1-2.151-3.4-.5-9-1.35-9-7.3,0-5,3.95-8.5,10.1-8.5s9.95,3.551,10.1,8h-7.3C574.851,224.249,573.851,223.6,572.351,223.6Zm-26.8,19.8c-7.8,0-13.3-5.5-13.3-13s5.5-13,13.3-13,13.3,5.5,13.3,13S553.351,243.4,545.551,243.4Zm0-19c-3.4,0-5.7,2.45-5.7,6s2.3,6,5.7,6,5.7-2.451,5.7-6S548.951,224.4,545.551,224.4Zm-25.5-17.151h7.5v35.5h-7.5v-35.5Zm-12.6,31.4a7.859,7.859,0,0,1-7.65,4.75c-5.5,0-11.951-4.1-11.951-12.7,0-7.95,5.5-13.3,13.351-13.3,7.75,0,13.151,5.151,13.151,13.251v12.1h-6.9v-4.1Zm-6.3-14.251c-3.4,0-5.7,2.45-5.7,6s2.3,6,5.7,6,5.7-2.451,5.7-6S504.551,224.4,501.151,224.4Zm-29.55,19c-7.551,0-13.151-4.95-13.151-13.251v-22.9h7.5v13.5a8.234,8.234,0,0,1,7-3.351c5.6,0,12,4.1,12,12.7C484.952,238.05,479.451,243.4,471.6,243.4Zm0.05-19c-3.4,0-5.7,2.45-5.7,6s2.3,6,5.7,6,5.7-2.451,5.7-6S475.051,224.4,471.651,224.4Zm-26.35,9.05H432.5v9.3h-7.9v-19c0-8.9,5.05-14.351,14.351-14.351,9.351,0,14.451,5.45,14.451,14.351v19h-8.1v-9.3Zm0-9.7c0-4.5-1.95-6.851-6.4-6.851-4.4,0-6.4,2.351-6.4,6.851v2.7h12.8v-2.7ZM394,243.4c-7.8,0-13.3-5.5-13.3-13s5.5-13,13.3-13,13.3,5.5,13.3,13S401.8,243.4,394,243.4Zm0-19c-3.4,0-5.7,2.45-5.7,6s2.3,6,5.7,6,5.7-2.451,5.7-6S397.4,224.4,394,224.4Zm-21.751-8.6a4.8,4.8,0,1,1,4.8-4.8A4.679,4.679,0,0,1,372.25,215.8Zm-17.75-8.55H362v35.5h-7.5v-35.5Zm-10.25,8.55a4.8,4.8,0,1,1,4.8-4.8A4.679,4.679,0,0,1,344.25,215.8ZM327.3,228.849c0-3.3-1.6-4.45-3.85-4.45-2.2,0-3.8,1.15-3.8,4.45v13.9h-7.5v-13.9c0-3.3-1.6-4.45-3.8-4.45-2.25,0-3.85,1.15-3.85,4.45v13.9H297v-13.9c0-7.95,4.6-11.451,10.6-11.451a9.78,9.78,0,0,1,8.3,3.951,9.72,9.72,0,0,1,8.3-3.951c6,0,10.6,3.5,10.6,11.451v13.9h-7.5v-13.9Zm-59.2-18.8h24.152v7.5H276.2V222.9h13.151v6.5H276.2v5.851h16.051v7.5H268.1v-32.7Zm79.9,32.7h-7.5v-24.7H348v24.7Zm28,0h-7.5v-24.7H376v24.7Z" transform="translate(-268.094 -206.188)"/>
</svg>
